<svg aria-roledescription="er" viewBox="0 0 483.8541564941406 532" style="max-width: 483.854px; background-color: white;" xmlns:xlink="http://www.w3.org/1999/xlink" xmlns="http://www.w3.org/2000/svg" width="100%" id="mermaid-0"><style>#mermaid-0{font-family:"trebuchet ms",verdana,arial,sans-serif;font-size:16px;fill:#000000;}#mermaid-0 .error-icon{fill:#552222;}#mermaid-0 .error-text{fill:#552222;stroke:#552222;}#mermaid-0 .edge-thickness-normal{stroke-width:2px;}#mermaid-0 .edge-thickness-thick{stroke-width:3.5px;}#mermaid-0 .edge-pattern-solid{stroke-dasharray:0;}#mermaid-0 .edge-pattern-dashed{stroke-dasharray:3;}#mermaid-0 .edge-pattern-dotted{stroke-dasharray:2;}#mermaid-0 .marker{fill:#000000;stroke:#000000;}#mermaid-0 .marker.cross{stroke:#000000;}#mermaid-0 svg{font-family:"trebuchet ms",verdana,arial,sans-serif;font-size:16px;}#mermaid-0 .entityBox{fill:#cde498;stroke:#13540c;}#mermaid-0 .attributeBoxOdd{fill:#ffffff;stroke:#13540c;}#mermaid-0 .attributeBoxEven{fill:#f2f2f2;stroke:#13540c;}#mermaid-0 .relationshipLabelBox{fill:hsl(78.1578947368, 58.4615384615%, 84.5098039216%);opacity:0.7;background-color:hsl(78.1578947368, 58.4615384615%, 84.5098039216%);}#mermaid-0 .relationshipLabelBox rect{opacity:0.5;}#mermaid-0 .relationshipLine{stroke:#000000;}#mermaid-0 .entityTitleText{text-anchor:middle;font-size:18px;fill:#000000;}#mermaid-0 :root{--mermaid-font-family:"trebuchet ms",verdana,arial,sans-serif;}</style><g/><defs><marker orient="auto" markerHeight="18" markerWidth="18" refY="9" refX="0" id="ONLY_ONE_START"><path d="M9,0 L9,18 M15,0 L15,18" fill="none" stroke="gray"/></marker></defs><defs><marker orient="auto" markerHeight="18" markerWidth="18" refY="9" refX="18" id="ONLY_ONE_END"><path d="M3,0 L3,18 M9,0 L9,18" fill="none" stroke="gray"/></marker></defs><defs><marker orient="auto" markerHeight="18" markerWidth="30" refY="9" refX="0" id="ZERO_OR_ONE_START"><circle r="6" cy="9" cx="21" fill="white" stroke="gray"/><path d="M9,0 L9,18" fill="none" stroke="gray"/></marker></defs><defs><marker orient="auto" markerHeight="18" markerWidth="30" refY="9" refX="30" id="ZERO_OR_ONE_END"><circle r="6" cy="9" cx="9" fill="white" stroke="gray"/><path d="M21,0 L21,18" fill="none" stroke="gray"/></marker></defs><defs><marker orient="auto" markerHeight="36" markerWidth="45" refY="18" refX="18" id="ONE_OR_MORE_START"><path d="M0,18 Q 18,0 36,18 Q 18,36 0,18 M42,9 L42,27" fill="none" stroke="gray"/></marker></defs><defs><marker orient="auto" markerHeight="36" markerWidth="45" refY="18" refX="27" id="ONE_OR_MORE_END"><path d="M3,9 L3,27 M9,18 Q27,0 45,18 Q27,36 9,18" fill="none" stroke="gray"/></marker></defs><defs><marker orient="auto" markerHeight="36" markerWidth="57" refY="18" refX="18" id="ZERO_OR_MORE_START"><circle r="6" cy="18" cx="48" fill="white" stroke="gray"/><path d="M0,18 Q18,0 36,18 Q18,36 0,18" fill="none" stroke="gray"/></marker></defs><defs><marker orient="auto" markerHeight="36" markerWidth="57" refY="18" refX="39" id="ZERO_OR_MORE_END"><circle r="6" cy="18" cx="9" fill="white" stroke="gray"/><path d="M21,18 Q39,0 57,18 Q39,36 21,18" fill="none" stroke="gray"/></marker></defs><path style="stroke: gray; fill: none;" marker-start="url(#ZERO_OR_MORE_START)" marker-end="url(#ONLY_ONE_END)" d="M131.146484375,322L131.146484375,330.3333333333333C131.146484375,338.6666666666667,131.146484375,355.3333333333333,131.146484375,372C131.146484375,388.6666666666667,131.146484375,405.3333333333333,131.146484375,413.6666666666667L131.146484375,422" class="er relationshipLine"/><path style="stroke: gray; fill: none;" marker-start="url(#ZERO_OR_MORE_START)" marker-end="url(#ONLY_ONE_END)" d="M81.146484375,88L81.146484375,96.33333333333333C81.146484375,104.66666666666667,81.146484375,121.33333333333333,84.70773793625357,138C88.26899149750712,154.66666666666666,95.39149862001425,171.33333333333334,98.9527521812678,179.66666666666666L102.51400574252136,188" class="er relationshipLine"/><path style="stroke: gray; fill: none;" marker-start="url(#ZERO_OR_MORE_START)" marker-end="url(#ONLY_ONE_END)" d="M373.61010433378675,77L379.661691635374,87.16666666666667C385.71327893696133,97.33333333333333,397.8164535401359,117.66666666666667,403.86804084172326,141.66666666666666C409.91962814331055,165.66666666666666,409.91962814331055,193.33333333333334,409.91962814331055,207.16666666666666L409.91962814331055,221" class="er relationshipLine"/><path style="stroke: gray; fill: none;" marker-start="url(#ZERO_OR_MORE_START)" marker-end="url(#ONLY_ONE_END)" d="M326.18632175808864,77L311.2752225588238,87.16666666666667C296.3641233595591,97.33333333333333,266.54192496102957,117.66666666666667,244.11136406749836,136.16666666666666C221.68080317396723,154.66666666666666,206.6418797854345,171.33333333333334,199.1224180911681,179.66666666666666L191.6029563969017,188" class="er relationshipLine"/><g transform="translate(38.68120574951172,188 )" id="entity-habits-bab2bdd7-6388-4ddf-ad97-13b47cc22824"><rect height="134" width="184.93055725097656" y="0" x="0" class="er entityBox"/><text style="dominant-baseline: middle; text-anchor: middle; font-size: 12px;" transform="translate(92.46527862548828,12)" y="0" x="0" id="text-entity-habits-bab2bdd7-6388-4ddf-ad97-13b47cc22824" class="er entityLabel">habits</text><rect height="22" width="54.095550537109375" y="24" x="0" class="er attributeBoxOdd"/><text style="dominant-baseline: middle; font-size: 10.2px;" transform="translate(5,35)" y="0" x="0" id="text-entity-habits-bab2bdd7-6388-4ddf-ad97-13b47cc22824-attr-1-type" class="er entityLabel">String</text><rect height="22" width="60.934783935546875" y="24" x="54.095550537109375" class="er attributeBoxOdd"/><text style="dominant-baseline: middle; font-size: 10.2px;" transform="translate(59.095550537109375,35)" y="0" x="0" id="text-entity-habits-bab2bdd7-6388-4ddf-ad97-13b47cc22824-attr-1-name" class="er entityLabel">id</text><rect height="22" width="22.68768310546875" y="24" x="115.03033447265625" class="er attributeBoxOdd"/><text style="dominant-baseline: middle; font-size: 10.2px;" transform="translate(120.03033447265625,35)" y="0" x="0" id="text-entity-habits-bab2bdd7-6388-4ddf-ad97-13b47cc22824-attr-1-key" class="er entityLabel">PK</text><rect height="22" width="47.21253967285156" y="24" x="137.718017578125" class="er attributeBoxOdd"/><text style="dominant-baseline: middle; font-size: 10.2px;" transform="translate(142.718017578125,35)" y="0" x="0" id="text-entity-habits-bab2bdd7-6388-4ddf-ad97-13b47cc22824-attr-1-comment" class="er entityLabel"/><rect height="22" width="54.095550537109375" y="46" x="0" class="er attributeBoxEven"/><text style="dominant-baseline: middle; font-size: 10.2px;" transform="translate(5,57)" y="0" x="0" id="text-entity-habits-bab2bdd7-6388-4ddf-ad97-13b47cc22824-attr-2-type" class="er entityLabel">String</text><rect height="22" width="60.934783935546875" y="46" x="54.095550537109375" class="er attributeBoxEven"/><text style="dominant-baseline: middle; font-size: 10.2px;" transform="translate(59.095550537109375,57)" y="0" x="0" id="text-entity-habits-bab2bdd7-6388-4ddf-ad97-13b47cc22824-attr-2-name" class="er entityLabel">title</text><rect height="22" width="22.68768310546875" y="46" x="115.03033447265625" class="er attributeBoxEven"/><text style="dominant-baseline: middle; font-size: 10.2px;" transform="translate(120.03033447265625,57)" y="0" x="0" id="text-entity-habits-bab2bdd7-6388-4ddf-ad97-13b47cc22824-attr-2-key" class="er entityLabel"/><rect height="22" width="47.21253967285156" y="46" x="137.718017578125" class="er attributeBoxEven"/><text style="dominant-baseline: middle; font-size: 10.2px;" transform="translate(142.718017578125,57)" y="0" x="0" id="text-entity-habits-bab2bdd7-6388-4ddf-ad97-13b47cc22824-attr-2-comment" class="er entityLabel"/><rect height="22" width="54.095550537109375" y="68" x="0" class="er attributeBoxOdd"/><text style="dominant-baseline: middle; font-size: 10.2px;" transform="translate(5,79)" y="0" x="0" id="text-entity-habits-bab2bdd7-6388-4ddf-ad97-13b47cc22824-attr-3-type" class="er entityLabel">String</text><rect height="22" width="60.934783935546875" y="68" x="54.095550537109375" class="er attributeBoxOdd"/><text style="dominant-baseline: middle; font-size: 10.2px;" transform="translate(59.095550537109375,79)" y="0" x="0" id="text-entity-habits-bab2bdd7-6388-4ddf-ad97-13b47cc22824-attr-3-name" class="er entityLabel">group_id</text><rect height="22" width="22.68768310546875" y="68" x="115.03033447265625" class="er attributeBoxOdd"/><text style="dominant-baseline: middle; font-size: 10.2px;" transform="translate(120.03033447265625,79)" y="0" x="0" id="text-entity-habits-bab2bdd7-6388-4ddf-ad97-13b47cc22824-attr-3-key" class="er entityLabel"/><rect height="22" width="47.21253967285156" y="68" x="137.718017578125" class="er attributeBoxOdd"/><text style="dominant-baseline: middle; font-size: 10.2px;" transform="translate(142.718017578125,79)" y="0" x="0" id="text-entity-habits-bab2bdd7-6388-4ddf-ad97-13b47cc22824-attr-3-comment" class="er entityLabel">nullable</text><rect height="22" width="54.095550537109375" y="90" x="0" class="er attributeBoxEven"/><text style="dominant-baseline: middle; font-size: 10.2px;" transform="translate(5,101)" y="0" x="0" id="text-entity-habits-bab2bdd7-6388-4ddf-ad97-13b47cc22824-attr-4-type" class="er entityLabel">DateTime</text><rect height="22" width="60.934783935546875" y="90" x="54.095550537109375" class="er attributeBoxEven"/><text style="dominant-baseline: middle; font-size: 10.2px;" transform="translate(59.095550537109375,101)" y="0" x="0" id="text-entity-habits-bab2bdd7-6388-4ddf-ad97-13b47cc22824-attr-4-name" class="er entityLabel">created_at</text><rect height="22" width="22.68768310546875" y="90" x="115.03033447265625" class="er attributeBoxEven"/><text style="dominant-baseline: middle; font-size: 10.2px;" transform="translate(120.03033447265625,101)" y="0" x="0" id="text-entity-habits-bab2bdd7-6388-4ddf-ad97-13b47cc22824-attr-4-key" class="er entityLabel"/><rect height="22" width="47.21253967285156" y="90" x="137.718017578125" class="er attributeBoxEven"/><text style="dominant-baseline: middle; font-size: 10.2px;" transform="translate(142.718017578125,101)" y="0" x="0" id="text-entity-habits-bab2bdd7-6388-4ddf-ad97-13b47cc22824-attr-4-comment" class="er entityLabel"/><rect height="22" width="54.095550537109375" y="112" x="0" class="er attributeBoxOdd"/><text style="dominant-baseline: middle; font-size: 10.2px;" transform="translate(5,123)" y="0" x="0" id="text-entity-habits-bab2bdd7-6388-4ddf-ad97-13b47cc22824-attr-5-type" class="er entityLabel">DateTime</text><rect height="22" width="60.934783935546875" y="112" x="54.095550537109375" class="er attributeBoxOdd"/><text style="dominant-baseline: middle; font-size: 10.2px;" transform="translate(59.095550537109375,123)" y="0" x="0" id="text-entity-habits-bab2bdd7-6388-4ddf-ad97-13b47cc22824-attr-5-name" class="er entityLabel">ended_at</text><rect height="22" width="22.68768310546875" y="112" x="115.03033447265625" class="er attributeBoxOdd"/><text style="dominant-baseline: middle; font-size: 10.2px;" transform="translate(120.03033447265625,123)" y="0" x="0" id="text-entity-habits-bab2bdd7-6388-4ddf-ad97-13b47cc22824-attr-5-key" class="er entityLabel"/><rect height="22" width="47.21253967285156" y="112" x="137.718017578125" class="er attributeBoxOdd"/><text style="dominant-baseline: middle; font-size: 10.2px;" transform="translate(142.718017578125,123)" y="0" x="0" id="text-entity-habits-bab2bdd7-6388-4ddf-ad97-13b47cc22824-attr-5-comment" class="er entityLabel">nullable</text></g><g transform="translate(20,20 )" id="entity-habitweekdays-3f17621f-5cf4-4dd7-880b-8360a43524b7"><rect height="68" width="122.29296875" y="0" x="0" class="er entityBox"/><text style="dominant-baseline: middle; text-anchor: middle; font-size: 12px;" transform="translate(61.146484375,12)" y="0" x="0" id="text-entity-habitweekdays-3f17621f-5cf4-4dd7-880b-8360a43524b7" class="er entityLabel">habit_week_days</text><rect height="22" width="39.0484364827474" y="24" x="0" class="er attributeBoxOdd"/><text style="dominant-baseline: middle; font-size: 10.2px;" transform="translate(5,35)" y="0" x="0" id="text-entity-habitweekdays-3f17621f-5cf4-4dd7-880b-8360a43524b7-attr-1-type" class="er entityLabel">String</text><rect height="22" width="58.90446980794271" y="24" x="39.0484364827474" class="er attributeBoxOdd"/><text style="dominant-baseline: middle; font-size: 10.2px;" transform="translate(44.0484364827474,35)" y="0" x="0" id="text-entity-habitweekdays-3f17621f-5cf4-4dd7-880b-8360a43524b7-attr-1-name" class="er entityLabel">id</text><rect height="22" width="24.340062459309895" y="24" x="97.95290629069011" class="er attributeBoxOdd"/><text style="dominant-baseline: middle; font-size: 10.2px;" transform="translate(102.95290629069011,35)" y="0" x="0" id="text-entity-habitweekdays-3f17621f-5cf4-4dd7-880b-8360a43524b7-attr-1-key" class="er entityLabel">PK</text><rect height="22" width="39.0484364827474" y="46" x="0" class="er attributeBoxEven"/><text style="dominant-baseline: middle; font-size: 10.2px;" transform="translate(5,57)" y="0" x="0" id="text-entity-habitweekdays-3f17621f-5cf4-4dd7-880b-8360a43524b7-attr-2-type" class="er entityLabel">Int</text><rect height="22" width="58.90446980794271" y="46" x="39.0484364827474" class="er attributeBoxEven"/><text style="dominant-baseline: middle; font-size: 10.2px;" transform="translate(44.0484364827474,57)" y="0" x="0" id="text-entity-habitweekdays-3f17621f-5cf4-4dd7-880b-8360a43524b7-attr-2-name" class="er entityLabel">week_day</text><rect height="22" width="24.340062459309895" y="46" x="97.95290629069011" class="er attributeBoxEven"/><text style="dominant-baseline: middle; font-size: 10.2px;" transform="translate(102.95290629069011,57)" y="0" x="0" id="text-entity-habitweekdays-3f17621f-5cf4-4dd7-880b-8360a43524b7-attr-2-key" class="er entityLabel"/></g><g transform="translate(355.98510360717773,221 )" id="entity-days-da8d27a2-da10-4814-9ca8-e7e76986d15c"><rect height="68" width="107.86904907226562" y="0" x="0" class="er entityBox"/><text style="dominant-baseline: middle; text-anchor: middle; font-size: 12px;" transform="translate(53.93452453613281,12)" y="0" x="0" id="text-entity-days-da8d27a2-da10-4814-9ca8-e7e76986d15c" class="er entityLabel">days</text><rect height="22" width="54.095550537109375" y="24" x="0" class="er attributeBoxOdd"/><text style="dominant-baseline: middle; font-size: 10.2px;" transform="translate(5,35)" y="0" x="0" id="text-entity-days-da8d27a2-da10-4814-9ca8-e7e76986d15c-attr-1-type" class="er entityLabel">String</text><rect height="22" width="31.0858154296875" y="24" x="54.095550537109375" class="er attributeBoxOdd"/><text style="dominant-baseline: middle; font-size: 10.2px;" transform="translate(59.095550537109375,35)" y="0" x="0" id="text-entity-days-da8d27a2-da10-4814-9ca8-e7e76986d15c-attr-1-name" class="er entityLabel">id</text><rect height="22" width="22.68768310546875" y="24" x="85.18136596679688" class="er attributeBoxOdd"/><text style="dominant-baseline: middle; font-size: 10.2px;" transform="translate(90.18136596679688,35)" y="0" x="0" id="text-entity-days-da8d27a2-da10-4814-9ca8-e7e76986d15c-attr-1-key" class="er entityLabel">PK</text><rect height="22" width="54.095550537109375" y="46" x="0" class="er attributeBoxEven"/><text style="dominant-baseline: middle; font-size: 10.2px;" transform="translate(5,57)" y="0" x="0" id="text-entity-days-da8d27a2-da10-4814-9ca8-e7e76986d15c-attr-2-type" class="er entityLabel">DateTime</text><rect height="22" width="31.0858154296875" y="46" x="54.095550537109375" class="er attributeBoxEven"/><text style="dominant-baseline: middle; font-size: 10.2px;" transform="translate(59.095550537109375,57)" y="0" x="0" id="text-entity-days-da8d27a2-da10-4814-9ca8-e7e76986d15c-attr-2-name" class="er entityLabel">date</text><rect height="22" width="22.68768310546875" y="46" x="85.18136596679688" class="er attributeBoxEven"/><text style="dominant-baseline: middle; font-size: 10.2px;" transform="translate(90.18136596679688,57)" y="0" x="0" id="text-entity-days-da8d27a2-da10-4814-9ca8-e7e76986d15c-attr-2-key" class="er entityLabel"/></g><g transform="translate(309.91962814331055,31 )" id="entity-dayhabits-253481e9-60f5-4073-83a2-da71af255d1b"><rect height="46" width="100" y="0" x="0" class="er entityBox"/><text style="dominant-baseline: middle; text-anchor: middle; font-size: 12px;" transform="translate(50,12)" y="0" x="0" id="text-entity-dayhabits-253481e9-60f5-4073-83a2-da71af255d1b" class="er entityLabel">day_habits</text><rect height="22" width="44.39861551920573" y="24" x="0" class="er attributeBoxOdd"/><text style="dominant-baseline: middle; font-size: 10.2px;" transform="translate(5,35)" y="0" x="0" id="text-entity-dayhabits-253481e9-60f5-4073-83a2-da71af255d1b-attr-1-type" class="er entityLabel">String</text><rect height="22" width="25.911142985026043" y="24" x="44.39861551920573" class="er attributeBoxOdd"/><text style="dominant-baseline: middle; font-size: 10.2px;" transform="translate(49.39861551920573,35)" y="0" x="0" id="text-entity-dayhabits-253481e9-60f5-4073-83a2-da71af255d1b-attr-1-name" class="er entityLabel">id</text><rect height="22" width="29.69024149576823" y="24" x="70.30975850423177" class="er attributeBoxOdd"/><text style="dominant-baseline: middle; font-size: 10.2px;" transform="translate(75.30975850423177,35)" y="0" x="0" id="text-entity-dayhabits-253481e9-60f5-4073-83a2-da71af255d1b-attr-1-key" class="er entityLabel">PK</text></g><g transform="translate(74.0667953491211,422 )" id="entity-users-09eed652-74f5-4b9b-9f08-ce2ff0d2050e"><rect height="90" width="114.15937805175781" y="0" x="0" class="er entityBox"/><text style="dominant-baseline: middle; text-anchor: middle; font-size: 12px;" transform="translate(57.079689025878906,12)" y="0" x="0" id="text-entity-users-09eed652-74f5-4b9b-9f08-ce2ff0d2050e" class="er entityLabel">users</text><rect height="22" width="37.39605712890625" y="24" x="0" class="er attributeBoxOdd"/><text style="dominant-baseline: middle; font-size: 10.2px;" transform="translate(5,35)" y="0" x="0" id="text-entity-users-09eed652-74f5-4b9b-9f08-ce2ff0d2050e-attr-1-type" class="er entityLabel">String</text><rect height="22" width="54.07563781738281" y="24" x="37.39605712890625" class="er attributeBoxOdd"/><text style="dominant-baseline: middle; font-size: 10.2px;" transform="translate(42.39605712890625,35)" y="0" x="0" id="text-entity-users-09eed652-74f5-4b9b-9f08-ce2ff0d2050e-attr-1-name" class="er entityLabel">id</text><rect height="22" width="22.68768310546875" y="24" x="91.47169494628906" class="er attributeBoxOdd"/><text style="dominant-baseline: middle; font-size: 10.2px;" transform="translate(96.47169494628906,35)" y="0" x="0" id="text-entity-users-09eed652-74f5-4b9b-9f08-ce2ff0d2050e-attr-1-key" class="er entityLabel">PK</text><rect height="22" width="37.39605712890625" y="46" x="0" class="er attributeBoxEven"/><text style="dominant-baseline: middle; font-size: 10.2px;" transform="translate(5,57)" y="0" x="0" id="text-entity-users-09eed652-74f5-4b9b-9f08-ce2ff0d2050e-attr-2-type" class="er entityLabel">String</text><rect height="22" width="54.07563781738281" y="46" x="37.39605712890625" class="er attributeBoxEven"/><text style="dominant-baseline: middle; font-size: 10.2px;" transform="translate(42.39605712890625,57)" y="0" x="0" id="text-entity-users-09eed652-74f5-4b9b-9f08-ce2ff0d2050e-attr-2-name" class="er entityLabel">name</text><rect height="22" width="22.68768310546875" y="46" x="91.47169494628906" class="er attributeBoxEven"/><text style="dominant-baseline: middle; font-size: 10.2px;" transform="translate(96.47169494628906,57)" y="0" x="0" id="text-entity-users-09eed652-74f5-4b9b-9f08-ce2ff0d2050e-attr-2-key" class="er entityLabel"/><rect height="22" width="37.39605712890625" y="68" x="0" class="er attributeBoxOdd"/><text style="dominant-baseline: middle; font-size: 10.2px;" transform="translate(5,79)" y="0" x="0" id="text-entity-users-09eed652-74f5-4b9b-9f08-ce2ff0d2050e-attr-3-type" class="er entityLabel">String</text><rect height="22" width="54.07563781738281" y="68" x="37.39605712890625" class="er attributeBoxOdd"/><text style="dominant-baseline: middle; font-size: 10.2px;" transform="translate(42.39605712890625,79)" y="0" x="0" id="text-entity-users-09eed652-74f5-4b9b-9f08-ce2ff0d2050e-attr-3-name" class="er entityLabel">nickname</text><rect height="22" width="22.68768310546875" y="68" x="91.47169494628906" class="er attributeBoxOdd"/><text style="dominant-baseline: middle; font-size: 10.2px;" transform="translate(96.47169494628906,79)" y="0" x="0" id="text-entity-users-09eed652-74f5-4b9b-9f08-ce2ff0d2050e-attr-3-key" class="er entityLabel"/></g><rect height="14" width="23.958984375" y="365" x="119.1669921875" class="er relationshipLabelBox"/><text style="text-anchor: middle; dominant-baseline: middle; font-size: 12px;" y="372" x="131.146484375" id="rel1" class="er relationshipLabel">user</text><rect height="14" width="27.96875" y="132.4327850341797" x="71.03829956054688" class="er relationshipLabelBox"/><text style="text-anchor: middle; dominant-baseline: middle; font-size: 12px;" y="139.4327850341797" x="85.02267456054688" id="rel2" class="er relationshipLabel">habit</text><rect height="14" width="19.990234375" y="138.60446166992188" x="394.8057861328125" class="er relationshipLabelBox"/><text style="text-anchor: middle; dominant-baseline: middle; font-size: 12px;" y="145.60446166992188" x="404.8009033203125" id="rel3" class="er relationshipLabel">day</text><rect height="13.999992370605469" width="27.96875" y="120.63117599487305" x="240.8086395263672" class="er relationshipLabelBox"/><text style="text-anchor: middle; dominant-baseline: middle; font-size: 12px;" y="127.63117218017578" x="254.7930145263672" id="rel4" class="er relationshipLabel">habit</text></svg>