<svg aria-roledescription="er" viewBox="0 0 483.8541564941406 510" style="max-width: 483.854px; background-color: white;" xmlns:xlink="http://www.w3.org/1999/xlink" xmlns="http://www.w3.org/2000/svg" width="100%" id="mermaid-0"><style>#mermaid-0{font-family:"trebuchet ms",verdana,arial,sans-serif;font-size:16px;fill:#000000;}#mermaid-0 .error-icon{fill:#552222;}#mermaid-0 .error-text{fill:#552222;stroke:#552222;}#mermaid-0 .edge-thickness-normal{stroke-width:2px;}#mermaid-0 .edge-thickness-thick{stroke-width:3.5px;}#mermaid-0 .edge-pattern-solid{stroke-dasharray:0;}#mermaid-0 .edge-pattern-dashed{stroke-dasharray:3;}#mermaid-0 .edge-pattern-dotted{stroke-dasharray:2;}#mermaid-0 .marker{fill:#000000;stroke:#000000;}#mermaid-0 .marker.cross{stroke:#000000;}#mermaid-0 svg{font-family:"trebuchet ms",verdana,arial,sans-serif;font-size:16px;}#mermaid-0 .entityBox{fill:#cde498;stroke:#13540c;}#mermaid-0 .attributeBoxOdd{fill:#ffffff;stroke:#13540c;}#mermaid-0 .attributeBoxEven{fill:#f2f2f2;stroke:#13540c;}#mermaid-0 .relationshipLabelBox{fill:hsl(78.1578947368, 58.4615384615%, 84.5098039216%);opacity:0.7;background-color:hsl(78.1578947368, 58.4615384615%, 84.5098039216%);}#mermaid-0 .relationshipLabelBox rect{opacity:0.5;}#mermaid-0 .relationshipLine{stroke:#000000;}#mermaid-0 .entityTitleText{text-anchor:middle;font-size:18px;fill:#000000;}#mermaid-0 :root{--mermaid-font-family:"trebuchet ms",verdana,arial,sans-serif;}</style><g/><defs><marker orient="auto" markerHeight="18" markerWidth="18" refY="9" refX="0" id="ONLY_ONE_START"><path d="M9,0 L9,18 M15,0 L15,18" fill="none" stroke="gray"/></marker></defs><defs><marker orient="auto" markerHeight="18" markerWidth="18" refY="9" refX="18" id="ONLY_ONE_END"><path d="M3,0 L3,18 M9,0 L9,18" fill="none" stroke="gray"/></marker></defs><defs><marker orient="auto" markerHeight="18" markerWidth="30" refY="9" refX="0" id="ZERO_OR_ONE_START"><circle r="6" cy="9" cx="21" fill="white" stroke="gray"/><path d="M9,0 L9,18" fill="none" stroke="gray"/></marker></defs><defs><marker orient="auto" markerHeight="18" markerWidth="30" refY="9" refX="30" id="ZERO_OR_ONE_END"><circle r="6" cy="9" cx="9" fill="white" stroke="gray"/><path d="M21,0 L21,18" fill="none" stroke="gray"/></marker></defs><defs><marker orient="auto" markerHeight="36" markerWidth="45" refY="18" refX="18" id="ONE_OR_MORE_START"><path d="M0,18 Q 18,0 36,18 Q 18,36 0,18 M42,9 L42,27" fill="none" stroke="gray"/></marker></defs><defs><marker orient="auto" markerHeight="36" markerWidth="45" refY="18" refX="27" id="ONE_OR_MORE_END"><path d="M3,9 L3,27 M9,18 Q27,0 45,18 Q27,36 9,18" fill="none" stroke="gray"/></marker></defs><defs><marker orient="auto" markerHeight="36" markerWidth="57" refY="18" refX="18" id="ZERO_OR_MORE_START"><circle r="6" cy="18" cx="48" fill="white" stroke="gray"/><path d="M0,18 Q18,0 36,18 Q18,36 0,18" fill="none" stroke="gray"/></marker></defs><defs><marker orient="auto" markerHeight="36" markerWidth="57" refY="18" refX="39" id="ZERO_OR_MORE_END"><circle r="6" cy="18" cx="9" fill="white" stroke="gray"/><path d="M21,18 Q39,0 57,18 Q39,36 21,18" fill="none" stroke="gray"/></marker></defs><path style="stroke: gray; fill: none;" marker-start="url(#ZERO_OR_MORE_START)" marker-end="url(#ONLY_ONE_END)" d="M131.146484375,300L131.146484375,308.3333333333333C131.146484375,316.6666666666667,131.146484375,333.3333333333333,142.16651980082193,350.1642657070879C153.1865552266439,366.9951980808425,175.22662607828775,383.9903961616849,186.2466615041097,392.4879952021061L197.26669692993164,400.9855942425273" class="er relationshipLine"/><path style="stroke: gray; fill: none;" marker-start="url(#ZERO_OR_MORE_START)" marker-end="url(#ONLY_ONE_END)" d="M81.146484375,88L81.146484375,96.33333333333333C81.146484375,104.66666666666667,81.146484375,121.33333333333333,85.07730198506289,138C89.00811959512578,154.66666666666666,96.86975481525157,171.33333333333334,100.80057242531446,179.66666666666666L104.73139003537736,188" class="er relationshipLine"/><path style="stroke: gray; fill: none;" marker-start="url(#ZERO_OR_MORE_START)" marker-end="url(#ONLY_ONE_END)" d="M409.91962814331055,278L409.91962814331055,290C409.91962814331055,302,409.91962814331055,326,393.50403594970703,348.02409692351085C377.0884437561035,370.04819384702176,344.2572593688965,390.0963876940436,327.84166717529297,400.12048461755444L311.42607498168945,410.14458154106535" class="er relationshipLine"/><path style="stroke: gray; fill: none;" marker-start="url(#ZERO_OR_MORE_START)" marker-end="url(#ONLY_ONE_END)" d="M373.61010433378675,77L379.661691635374,87.16666666666667C385.71327893696133,97.33333333333333,397.8164535401359,117.66666666666667,403.86804084172326,139.83333333333334C409.91962814331055,162,409.91962814331055,186,409.91962814331055,198L409.91962814331055,210" class="er relationshipLine"/><path style="stroke: gray; fill: none;" marker-start="url(#ZERO_OR_MORE_START)" marker-end="url(#ONLY_ONE_END)" d="M326.18632175808864,77L311.2752225588238,87.16666666666667C296.3641233595591,97.33333333333333,266.54192496102957,117.66666666666667,243.3310425709236,136.16666666666666C220.1201601808176,154.66666666666666,203.5205937991352,171.33333333333334,195.22081060829404,179.66666666666666L186.92102741745282,188" class="er relationshipLine"/><g transform="translate(38.68120574951172,188 )" id="entity-habits-3a429216-5648-478f-bdcf-f0be820882d3"><rect height="112" width="184.93055725097656" y="0" x="0" class="er entityBox"/><text style="dominant-baseline: middle; text-anchor: middle; font-size: 12px;" transform="translate(92.46527862548828,12)" y="0" x="0" id="text-entity-habits-3a429216-5648-478f-bdcf-f0be820882d3" class="er entityLabel">habits</text><rect height="22" width="54.095550537109375" y="24" x="0" class="er attributeBoxOdd"/><text style="dominant-baseline: middle; font-size: 10.2px;" transform="translate(5,35)" y="0" x="0" id="text-entity-habits-3a429216-5648-478f-bdcf-f0be820882d3-attr-1-type" class="er entityLabel">String</text><rect height="22" width="60.934783935546875" y="24" x="54.095550537109375" class="er attributeBoxOdd"/><text style="dominant-baseline: middle; font-size: 10.2px;" transform="translate(59.095550537109375,35)" y="0" x="0" id="text-entity-habits-3a429216-5648-478f-bdcf-f0be820882d3-attr-1-name" class="er entityLabel">id</text><rect height="22" width="22.68768310546875" y="24" x="115.03033447265625" class="er attributeBoxOdd"/><text style="dominant-baseline: middle; font-size: 10.2px;" transform="translate(120.03033447265625,35)" y="0" x="0" id="text-entity-habits-3a429216-5648-478f-bdcf-f0be820882d3-attr-1-key" class="er entityLabel">PK</text><rect height="22" width="47.21253967285156" y="24" x="137.718017578125" class="er attributeBoxOdd"/><text style="dominant-baseline: middle; font-size: 10.2px;" transform="translate(142.718017578125,35)" y="0" x="0" id="text-entity-habits-3a429216-5648-478f-bdcf-f0be820882d3-attr-1-comment" class="er entityLabel"/><rect height="22" width="54.095550537109375" y="46" x="0" class="er attributeBoxEven"/><text style="dominant-baseline: middle; font-size: 10.2px;" transform="translate(5,57)" y="0" x="0" id="text-entity-habits-3a429216-5648-478f-bdcf-f0be820882d3-attr-2-type" class="er entityLabel">String</text><rect height="22" width="60.934783935546875" y="46" x="54.095550537109375" class="er attributeBoxEven"/><text style="dominant-baseline: middle; font-size: 10.2px;" transform="translate(59.095550537109375,57)" y="0" x="0" id="text-entity-habits-3a429216-5648-478f-bdcf-f0be820882d3-attr-2-name" class="er entityLabel">title</text><rect height="22" width="22.68768310546875" y="46" x="115.03033447265625" class="er attributeBoxEven"/><text style="dominant-baseline: middle; font-size: 10.2px;" transform="translate(120.03033447265625,57)" y="0" x="0" id="text-entity-habits-3a429216-5648-478f-bdcf-f0be820882d3-attr-2-key" class="er entityLabel"/><rect height="22" width="47.21253967285156" y="46" x="137.718017578125" class="er attributeBoxEven"/><text style="dominant-baseline: middle; font-size: 10.2px;" transform="translate(142.718017578125,57)" y="0" x="0" id="text-entity-habits-3a429216-5648-478f-bdcf-f0be820882d3-attr-2-comment" class="er entityLabel"/><rect height="22" width="54.095550537109375" y="68" x="0" class="er attributeBoxOdd"/><text style="dominant-baseline: middle; font-size: 10.2px;" transform="translate(5,79)" y="0" x="0" id="text-entity-habits-3a429216-5648-478f-bdcf-f0be820882d3-attr-3-type" class="er entityLabel">DateTime</text><rect height="22" width="60.934783935546875" y="68" x="54.095550537109375" class="er attributeBoxOdd"/><text style="dominant-baseline: middle; font-size: 10.2px;" transform="translate(59.095550537109375,79)" y="0" x="0" id="text-entity-habits-3a429216-5648-478f-bdcf-f0be820882d3-attr-3-name" class="er entityLabel">created_at</text><rect height="22" width="22.68768310546875" y="68" x="115.03033447265625" class="er attributeBoxOdd"/><text style="dominant-baseline: middle; font-size: 10.2px;" transform="translate(120.03033447265625,79)" y="0" x="0" id="text-entity-habits-3a429216-5648-478f-bdcf-f0be820882d3-attr-3-key" class="er entityLabel"/><rect height="22" width="47.21253967285156" y="68" x="137.718017578125" class="er attributeBoxOdd"/><text style="dominant-baseline: middle; font-size: 10.2px;" transform="translate(142.718017578125,79)" y="0" x="0" id="text-entity-habits-3a429216-5648-478f-bdcf-f0be820882d3-attr-3-comment" class="er entityLabel"/><rect height="22" width="54.095550537109375" y="90" x="0" class="er attributeBoxEven"/><text style="dominant-baseline: middle; font-size: 10.2px;" transform="translate(5,101)" y="0" x="0" id="text-entity-habits-3a429216-5648-478f-bdcf-f0be820882d3-attr-4-type" class="er entityLabel">DateTime</text><rect height="22" width="60.934783935546875" y="90" x="54.095550537109375" class="er attributeBoxEven"/><text style="dominant-baseline: middle; font-size: 10.2px;" transform="translate(59.095550537109375,101)" y="0" x="0" id="text-entity-habits-3a429216-5648-478f-bdcf-f0be820882d3-attr-4-name" class="er entityLabel">ended_at</text><rect height="22" width="22.68768310546875" y="90" x="115.03033447265625" class="er attributeBoxEven"/><text style="dominant-baseline: middle; font-size: 10.2px;" transform="translate(120.03033447265625,101)" y="0" x="0" id="text-entity-habits-3a429216-5648-478f-bdcf-f0be820882d3-attr-4-key" class="er entityLabel"/><rect height="22" width="47.21253967285156" y="90" x="137.718017578125" class="er attributeBoxEven"/><text style="dominant-baseline: middle; font-size: 10.2px;" transform="translate(142.718017578125,101)" y="0" x="0" id="text-entity-habits-3a429216-5648-478f-bdcf-f0be820882d3-attr-4-comment" class="er entityLabel">nullable</text></g><g transform="translate(20,20 )" id="entity-habitweekdays-3c462037-e10d-4cfa-876e-e5ce6cf3da29"><rect height="68" width="122.29296875" y="0" x="0" class="er entityBox"/><text style="dominant-baseline: middle; text-anchor: middle; font-size: 12px;" transform="translate(61.146484375,12)" y="0" x="0" id="text-entity-habitweekdays-3c462037-e10d-4cfa-876e-e5ce6cf3da29" class="er entityLabel">habit_week_days</text><rect height="22" width="39.0484364827474" y="24" x="0" class="er attributeBoxOdd"/><text style="dominant-baseline: middle; font-size: 10.2px;" transform="translate(5,35)" y="0" x="0" id="text-entity-habitweekdays-3c462037-e10d-4cfa-876e-e5ce6cf3da29-attr-1-type" class="er entityLabel">String</text><rect height="22" width="58.90446980794271" y="24" x="39.0484364827474" class="er attributeBoxOdd"/><text style="dominant-baseline: middle; font-size: 10.2px;" transform="translate(44.0484364827474,35)" y="0" x="0" id="text-entity-habitweekdays-3c462037-e10d-4cfa-876e-e5ce6cf3da29-attr-1-name" class="er entityLabel">id</text><rect height="22" width="24.340062459309895" y="24" x="97.95290629069011" class="er attributeBoxOdd"/><text style="dominant-baseline: middle; font-size: 10.2px;" transform="translate(102.95290629069011,35)" y="0" x="0" id="text-entity-habitweekdays-3c462037-e10d-4cfa-876e-e5ce6cf3da29-attr-1-key" class="er entityLabel">PK</text><rect height="22" width="39.0484364827474" y="46" x="0" class="er attributeBoxEven"/><text style="dominant-baseline: middle; font-size: 10.2px;" transform="translate(5,57)" y="0" x="0" id="text-entity-habitweekdays-3c462037-e10d-4cfa-876e-e5ce6cf3da29-attr-2-type" class="er entityLabel">Int</text><rect height="22" width="58.90446980794271" y="46" x="39.0484364827474" class="er attributeBoxEven"/><text style="dominant-baseline: middle; font-size: 10.2px;" transform="translate(44.0484364827474,57)" y="0" x="0" id="text-entity-habitweekdays-3c462037-e10d-4cfa-876e-e5ce6cf3da29-attr-2-name" class="er entityLabel">week_day</text><rect height="22" width="24.340062459309895" y="46" x="97.95290629069011" class="er attributeBoxEven"/><text style="dominant-baseline: middle; font-size: 10.2px;" transform="translate(102.95290629069011,57)" y="0" x="0" id="text-entity-habitweekdays-3c462037-e10d-4cfa-876e-e5ce6cf3da29-attr-2-key" class="er entityLabel"/></g><g transform="translate(355.98510360717773,210 )" id="entity-days-53620480-8efa-42ae-a08d-f1c69e33bd41"><rect height="68" width="107.86904907226562" y="0" x="0" class="er entityBox"/><text style="dominant-baseline: middle; text-anchor: middle; font-size: 12px;" transform="translate(53.93452453613281,12)" y="0" x="0" id="text-entity-days-53620480-8efa-42ae-a08d-f1c69e33bd41" class="er entityLabel">days</text><rect height="22" width="54.095550537109375" y="24" x="0" class="er attributeBoxOdd"/><text style="dominant-baseline: middle; font-size: 10.2px;" transform="translate(5,35)" y="0" x="0" id="text-entity-days-53620480-8efa-42ae-a08d-f1c69e33bd41-attr-1-type" class="er entityLabel">String</text><rect height="22" width="31.0858154296875" y="24" x="54.095550537109375" class="er attributeBoxOdd"/><text style="dominant-baseline: middle; font-size: 10.2px;" transform="translate(59.095550537109375,35)" y="0" x="0" id="text-entity-days-53620480-8efa-42ae-a08d-f1c69e33bd41-attr-1-name" class="er entityLabel">id</text><rect height="22" width="22.68768310546875" y="24" x="85.18136596679688" class="er attributeBoxOdd"/><text style="dominant-baseline: middle; font-size: 10.2px;" transform="translate(90.18136596679688,35)" y="0" x="0" id="text-entity-days-53620480-8efa-42ae-a08d-f1c69e33bd41-attr-1-key" class="er entityLabel">PK</text><rect height="22" width="54.095550537109375" y="46" x="0" class="er attributeBoxEven"/><text style="dominant-baseline: middle; font-size: 10.2px;" transform="translate(5,57)" y="0" x="0" id="text-entity-days-53620480-8efa-42ae-a08d-f1c69e33bd41-attr-2-type" class="er entityLabel">DateTime</text><rect height="22" width="31.0858154296875" y="46" x="54.095550537109375" class="er attributeBoxEven"/><text style="dominant-baseline: middle; font-size: 10.2px;" transform="translate(59.095550537109375,57)" y="0" x="0" id="text-entity-days-53620480-8efa-42ae-a08d-f1c69e33bd41-attr-2-name" class="er entityLabel">date</text><rect height="22" width="22.68768310546875" y="46" x="85.18136596679688" class="er attributeBoxEven"/><text style="dominant-baseline: middle; font-size: 10.2px;" transform="translate(90.18136596679688,57)" y="0" x="0" id="text-entity-days-53620480-8efa-42ae-a08d-f1c69e33bd41-attr-2-key" class="er entityLabel"/></g><g transform="translate(309.91962814331055,31 )" id="entity-dayhabits-d6d472d6-eb20-4680-b039-cd55f866621f"><rect height="46" width="100" y="0" x="0" class="er entityBox"/><text style="dominant-baseline: middle; text-anchor: middle; font-size: 12px;" transform="translate(50,12)" y="0" x="0" id="text-entity-dayhabits-d6d472d6-eb20-4680-b039-cd55f866621f" class="er entityLabel">day_habits</text><rect height="22" width="44.39861551920573" y="24" x="0" class="er attributeBoxOdd"/><text style="dominant-baseline: middle; font-size: 10.2px;" transform="translate(5,35)" y="0" x="0" id="text-entity-dayhabits-d6d472d6-eb20-4680-b039-cd55f866621f-attr-1-type" class="er entityLabel">String</text><rect height="22" width="25.911142985026043" y="24" x="44.39861551920573" class="er attributeBoxOdd"/><text style="dominant-baseline: middle; font-size: 10.2px;" transform="translate(49.39861551920573,35)" y="0" x="0" id="text-entity-dayhabits-d6d472d6-eb20-4680-b039-cd55f866621f-attr-1-name" class="er entityLabel">id</text><rect height="22" width="29.69024149576823" y="24" x="70.30975850423177" class="er attributeBoxOdd"/><text style="dominant-baseline: middle; font-size: 10.2px;" transform="translate(75.30975850423177,35)" y="0" x="0" id="text-entity-dayhabits-d6d472d6-eb20-4680-b039-cd55f866621f-attr-1-key" class="er entityLabel">PK</text></g><g transform="translate(197.26669692993164,400 )" id="entity-users-71e86acd-e19a-41d4-9391-35d3f930dccc"><rect height="90" width="114.15937805175781" y="0" x="0" class="er entityBox"/><text style="dominant-baseline: middle; text-anchor: middle; font-size: 12px;" transform="translate(57.079689025878906,12)" y="0" x="0" id="text-entity-users-71e86acd-e19a-41d4-9391-35d3f930dccc" class="er entityLabel">users</text><rect height="22" width="37.39605712890625" y="24" x="0" class="er attributeBoxOdd"/><text style="dominant-baseline: middle; font-size: 10.2px;" transform="translate(5,35)" y="0" x="0" id="text-entity-users-71e86acd-e19a-41d4-9391-35d3f930dccc-attr-1-type" class="er entityLabel">String</text><rect height="22" width="54.07563781738281" y="24" x="37.39605712890625" class="er attributeBoxOdd"/><text style="dominant-baseline: middle; font-size: 10.2px;" transform="translate(42.39605712890625,35)" y="0" x="0" id="text-entity-users-71e86acd-e19a-41d4-9391-35d3f930dccc-attr-1-name" class="er entityLabel">id</text><rect height="22" width="22.68768310546875" y="24" x="91.47169494628906" class="er attributeBoxOdd"/><text style="dominant-baseline: middle; font-size: 10.2px;" transform="translate(96.47169494628906,35)" y="0" x="0" id="text-entity-users-71e86acd-e19a-41d4-9391-35d3f930dccc-attr-1-key" class="er entityLabel">PK</text><rect height="22" width="37.39605712890625" y="46" x="0" class="er attributeBoxEven"/><text style="dominant-baseline: middle; font-size: 10.2px;" transform="translate(5,57)" y="0" x="0" id="text-entity-users-71e86acd-e19a-41d4-9391-35d3f930dccc-attr-2-type" class="er entityLabel">String</text><rect height="22" width="54.07563781738281" y="46" x="37.39605712890625" class="er attributeBoxEven"/><text style="dominant-baseline: middle; font-size: 10.2px;" transform="translate(42.39605712890625,57)" y="0" x="0" id="text-entity-users-71e86acd-e19a-41d4-9391-35d3f930dccc-attr-2-name" class="er entityLabel">name</text><rect height="22" width="22.68768310546875" y="46" x="91.47169494628906" class="er attributeBoxEven"/><text style="dominant-baseline: middle; font-size: 10.2px;" transform="translate(96.47169494628906,57)" y="0" x="0" id="text-entity-users-71e86acd-e19a-41d4-9391-35d3f930dccc-attr-2-key" class="er entityLabel"/><rect height="22" width="37.39605712890625" y="68" x="0" class="er attributeBoxOdd"/><text style="dominant-baseline: middle; font-size: 10.2px;" transform="translate(5,79)" y="0" x="0" id="text-entity-users-71e86acd-e19a-41d4-9391-35d3f930dccc-attr-3-type" class="er entityLabel">String</text><rect height="22" width="54.07563781738281" y="68" x="37.39605712890625" class="er attributeBoxOdd"/><text style="dominant-baseline: middle; font-size: 10.2px;" transform="translate(42.39605712890625,79)" y="0" x="0" id="text-entity-users-71e86acd-e19a-41d4-9391-35d3f930dccc-attr-3-name" class="er entityLabel">nickname</text><rect height="22" width="22.68768310546875" y="68" x="91.47169494628906" class="er attributeBoxOdd"/><text style="dominant-baseline: middle; font-size: 10.2px;" transform="translate(96.47169494628906,79)" y="0" x="0" id="text-entity-users-71e86acd-e19a-41d4-9391-35d3f930dccc-attr-3-key" class="er entityLabel"/></g><rect height="14" width="23.958984375" y="352.3079833984375" x="137.1577606201172" class="er relationshipLabelBox"/><text style="text-anchor: middle; dominant-baseline: middle; font-size: 12px;" y="359.3079833984375" x="149.1372528076172" id="rel1" class="er relationshipLabel">user</text><rect height="14" width="27.96875" y="132.72332763671875" x="71.51331329345703" class="er relationshipLabelBox"/><text style="text-anchor: middle; dominant-baseline: middle; font-size: 12px;" y="139.72332763671875" x="85.49768829345703" id="rel2" class="er relationshipLabel">habit</text><rect height="14" width="23.958984375" y="352.3124694824219" x="371.6233215332031" class="er relationshipLabelBox"/><text style="text-anchor: middle; dominant-baseline: middle; font-size: 12px;" y="359.3124694824219" x="383.6028137207031" id="rel3" class="er relationshipLabel">user</text><rect height="14" width="19.990234375" y="133.16226196289062" x="393.96197509765625" class="er relationshipLabelBox"/><text style="text-anchor: middle; dominant-baseline: middle; font-size: 12px;" y="140.16226196289062" x="403.95709228515625" id="rel4" class="er relationshipLabel">day</text><rect height="14" width="27.96875" y="121.43353271484375" x="239.27871704101562" class="er relationshipLabelBox"/><text style="text-anchor: middle; dominant-baseline: middle; font-size: 12px;" y="128.43353271484375" x="253.26309204101562" id="rel5" class="er relationshipLabel">habit</text></svg>